<?xml version="1.0" standalone="no"?>
<!DOCTYPE svg PUBLIC "-//W3C//DTD SVG 20010904//EN"
 "http://www.w3.org/TR/2001/REC-SVG-20010904/DTD/svg10.dtd">
<svg version="1.0" xmlns="http://www.w3.org/2000/svg"
 width="1280.000000pt" height="911.000000pt" viewBox="0 0 1280.000000 911.000000"
 preserveAspectRatio="xMidYMid meet">
<g transform="translate(0.000000,911.000000) scale(0.100000,-0.100000)"
fill="#000000" stroke="none">
<path d="M7464 8588 c-65 -44 -148 -161 -228 -323 -89 -178 -133 -298 -162
-440 -13 -66 -33 -138 -44 -160 -24 -49 -42 -160 -70 -413 -12 -107 -23 -199
-26 -205 -2 -7 -37 -34 -77 -62 -101 -70 -261 -233 -335 -343 -102 -149 -160
-281 -234 -532 l-13 -45 -264 -3 c-229 -2 -267 -5 -283 -19 -14 -12 -15 -19
-7 -30 9 -9 43 -13 131 -13 272 0 361 -59 389 -257 13 -95 5 -155 -26 -191
l-23 -27 -372 -5 -372 -5 -34 -39 c-58 -67 -44 -71 110 -34 84 20 98 20 255 9
359 -24 356 -24 464 -122 54 -50 66 -84 67 -189 0 -93 -5 -98 -79 -75 -77 23
-157 17 -271 -21 l-85 -29 220 -5 c239 -5 243 -6 298 -66 32 -34 71 -119 64
-137 -9 -24 -103 -44 -238 -51 -581 -28 -1096 -199 -1503 -499 -126 -93 -278
-231 -371 -337 -44 -49 -91 -93 -104 -97 -13 -3 -49 2 -80 12 -51 15 -69 30
-191 154 -151 153 -188 207 -236 350 -45 129 -70 253 -94 463 -50 434 -104
593 -254 747 -254 261 -515 465 -750 585 -234 120 -445 162 -574 115 -137 -51
-158 -53 -300 -30 -110 18 -142 19 -205 11 -151 -21 -315 -81 -552 -200 -323
-163 -492 -310 -526 -457 -38 -165 93 -413 241 -457 96 -29 122 -23 347 70
513 212 608 244 787 264 85 10 99 9 190 -15 352 -92 636 -304 801 -600 56
-100 224 -583 305 -880 93 -338 210 -558 385 -723 118 -112 152 -127 360 -152
185 -23 231 -32 286 -61 54 -27 64 -85 28 -154 -28 -55 -21 -85 50 -225 74
-144 90 -200 68 -233 -16 -25 -108 -96 -326 -253 -174 -125 -286 -233 -360
-348 l-61 -94 0 -182 c0 -201 10 -287 46 -392 56 -166 179 -284 329 -316 211
-46 381 6 561 170 108 99 357 459 408 591 18 44 39 85 47 90 20 12 106 0 111
-16 7 -20 -10 -202 -34 -357 -32 -202 -32 -496 0 -615 55 -202 158 -339 314
-414 132 -63 314 -91 471 -71 250 31 350 139 364 394 7 131 2 151 -108 471
-78 229 -89 289 -65 362 27 81 48 94 168 104 127 11 276 31 520 70 384 61 666
88 722 69 83 -27 158 -153 315 -533 138 -332 145 -343 338 -529 205 -196 306
-247 464 -234 191 16 387 81 536 179 153 100 203 201 169 338 -39 154 -136
288 -387 536 -199 196 -277 285 -345 395 -73 120 -107 266 -68 299 9 7 44 15
78 17 l61 3 145 -167 c80 -92 199 -222 265 -290 116 -118 124 -124 235 -177
133 -65 227 -92 377 -112 214 -29 421 -13 529 40 61 30 128 100 174 182 52 92
120 272 126 332 5 56 5 57 -68 175 l-74 120 -124 44 c-69 24 -175 56 -235 72
-61 15 -140 42 -175 60 -180 90 -487 340 -597 485 -41 54 -45 64 -40 102 5 46
315 680 344 704 9 8 34 19 57 26 23 6 68 20 101 31 33 11 141 46 240 77 458
145 838 327 1126 539 l36 27 149 -46 c259 -81 515 -134 584 -123 35 6 -140 61
-295 93 -230 49 -341 87 -402 139 -18 15 -33 34 -33 42 0 8 30 57 66 110 37
53 101 155 144 227 l77 132 174 3 c96 2 287 -4 424 -13 138 -9 300 -15 360
-13 l110 3 -40 27 c-70 47 -101 50 -570 55 -309 3 -444 8 -454 16 -22 19 -8
189 32 370 20 88 38 161 40 164 12 11 198 34 352 43 94 6 202 17 240 25 39 7
111 19 160 25 50 6 100 18 112 26 21 13 41 59 31 70 -8 8 -176 -14 -349 -46
-203 -37 -321 -50 -466 -50 -111 0 -113 0 -146 30 -49 43 -62 83 -92 294 -26
187 -78 285 -261 491 -85 97 -171 219 -205 290 -19 41 -41 127 -68 270 -48
248 -107 493 -151 625 -64 191 -171 400 -287 563 -60 84 -207 240 -256 272
-27 18 -28 17 -103 -20 -146 -72 -266 -219 -412 -507 -95 -186 -161 -285 -245
-365 -75 -72 -133 -107 -212 -127 -141 -37 -385 -4 -458 62 -11 9 -35 49 -54
87 -80 160 -135 225 -422 505 -152 148 -301 286 -331 307 -30 22 -88 65 -129
96 -88 69 -116 72 -187 25z m303 -220 c65 -67 181 -188 258 -268 216 -224 337
-399 352 -509 7 -53 -4 -62 -61 -49 -99 22 -190 109 -318 303 -116 176 -199
251 -300 270 -108 20 -214 -87 -297 -298 -25 -62 -36 -118 -55 -269 -20 -154
-30 -200 -51 -245 -33 -67 -85 -104 -155 -111 l-50 -5 0 51 c0 123 83 494 171
769 104 321 221 482 351 483 35 0 46 -9 155 -122z m2334 -53 c99 -65 279 -449
403 -858 63 -206 96 -424 67 -441 -7 -5 -113 169 -215 355 -20 36 -63 148 -96
249 -68 207 -96 265 -158 326 -69 69 -154 80 -234 31 -41 -25 -83 -76 -211
-257 -98 -138 -126 -159 -230 -179 -82 -15 -91 -9 -84 54 14 136 174 340 462
589 194 168 194 169 230 162 16 -4 46 -17 66 -31z m-971 -889 c172 -35 265
-70 400 -152 37 -22 172 -70 405 -144 367 -117 510 -176 620 -254 73 -53 114
-120 96 -155 -19 -35 -75 -70 -218 -136 -219 -102 -283 -143 -283 -178 0 -35
206 -70 565 -97 273 -21 281 -22 303 -46 27 -30 28 -50 5 -62 -10 -5 -117 -35
-238 -66 -286 -74 -407 -112 -435 -134 l-22 -18 38 -33 c53 -47 84 -58 220
-75 264 -35 398 -78 440 -141 23 -35 13 -51 -43 -64 -75 -17 -449 -43 -643
-45 -208 -1 -218 2 -389 122 -123 88 -168 106 -229 97 -56 -8 -84 -36 -80 -78
3 -29 7 -33 73 -53 74 -22 169 -67 180 -84 14 -23 -9 -47 -90 -93 -124 -70
-117 -77 70 -77 97 0 164 -4 180 -12 31 -14 89 -130 99 -195 5 -35 3 -44 -13
-53 -13 -6 -143 -10 -356 -10 -319 0 -375 -4 -375 -29 0 -4 28 -20 63 -34 52
-21 84 -26 202 -32 149 -7 448 -38 478 -50 23 -10 31 -44 24 -120 -13 -165
-114 -217 -253 -131 -48 29 -69 36 -109 36 -68 0 -215 -21 -215 -31 0 -4 51
-33 113 -63 175 -87 242 -128 245 -155 5 -31 -63 -94 -123 -114 -26 -9 -105
-22 -176 -28 -260 -23 -473 27 -603 142 -79 70 -76 48 -76 580 l0 473 146 148
147 147 -7 68 c-17 177 -126 265 -346 280 -139 9 -306 -36 -366 -98 -26 -27
-29 -37 -28 -92 0 -49 7 -75 31 -122 32 -62 95 -141 148 -185 17 -13 56 -49
88 -79 l57 -54 0 -432 c0 -508 0 -509 -84 -591 -68 -67 -114 -81 -286 -88
-157 -7 -280 4 -435 39 -145 33 -219 70 -288 145 -54 58 -122 174 -111 191 3
5 115 9 249 9 148 0 246 4 250 10 3 5 1 19 -5 30 -15 28 -95 47 -230 55 -63 3
-144 13 -179 21 -150 34 -244 132 -181 189 18 16 34 17 162 12 79 -4 199 -13
268 -22 176 -22 380 -31 380 -17 0 17 -27 40 -62 51 -18 6 -139 26 -268 46
-261 40 -393 68 -428 91 -57 37 -48 120 16 153 92 47 218 35 351 -31 77 -39
92 -43 178 -46 79 -4 94 -2 99 12 14 37 -52 76 -169 100 -139 28 -190 47 -224
81 -41 41 -41 59 -4 94 22 21 50 32 110 43 118 24 156 60 149 144 l-3 39 -55
-1 c-69 -1 -138 -33 -251 -115 -113 -83 -194 -120 -273 -126 -61 -5 -69 -3
-176 46 -65 31 -143 58 -188 67 -42 9 -117 24 -167 35 -49 10 -124 23 -165 29
-159 23 -365 105 -365 145 0 21 -10 19 382 99 67 14 166 30 220 35 311 31 323
33 323 52 0 31 -58 77 -138 107 -42 17 -183 67 -312 112 -129 45 -241 88 -249
96 -24 22 23 32 242 54 409 40 483 53 581 101 41 21 86 57 86 69 0 9 -44 29
-250 117 -171 73 -200 88 -200 103 0 15 363 251 405 264 11 3 207 42 435 86
228 45 426 85 440 90 14 5 154 8 320 6 229 -2 314 -7 380 -20z m-7230 -1310
l125 -22 -2 -160 c-2 -155 -24 -359 -40 -375 -7 -7 -459 -39 -551 -39 l-35 0
6 133 c8 189 42 300 122 398 78 95 146 107 375 65z m832 -173 c21 -19 25 -103
7 -168 -12 -43 -126 -302 -142 -322 -14 -18 -139 -16 -212 2 -65 17 -145 58
-172 87 -16 18 -16 23 7 91 44 129 134 243 230 292 55 29 79 33 174 34 70 1
93 -3 108 -16z m3755 -47 c74 -37 161 -63 538 -161 247 -65 464 -122 482 -127
38 -10 40 -22 16 -93 -32 -90 -107 -145 -197 -145 -15 0 -69 14 -118 30 -50
17 -127 39 -172 49 -45 11 -108 26 -141 35 -33 8 -122 22 -197 30 -84 9 -153
22 -180 34 -90 39 -133 123 -145 279 -6 82 -2 113 16 113 5 0 49 -20 98 -44z
m-3222 -407 c83 -77 118 -195 80 -269 -17 -33 -106 -104 -184 -146 -56 -30
-107 -73 -128 -109 -10 -18 -24 -8 -172 140 -89 88 -161 163 -161 167 0 7 204
126 354 205 126 66 151 67 211 12z m7933 9 c27 -91 34 -133 30 -183 -11 -136
-105 -172 -424 -161 -170 6 -437 29 -475 41 -9 3 -23 20 -29 38 -17 46 -26
233 -11 250 8 11 72 16 273 21 145 4 295 11 333 15 39 5 120 9 182 10 l111 1
10 -32z m-4648 -94 c25 -8 212 -48 415 -89 l370 -74 47 -53 c46 -51 67 -101
54 -133 -8 -23 -84 -18 -546 34 -96 11 -221 23 -277 26 -97 7 -104 9 -142 41
-76 66 -117 199 -74 246 21 23 91 24 153 2z m4200 -360 c52 -8 153 -24 224
-34 71 -10 133 -23 139 -29 5 -5 12 -33 15 -60 7 -74 -31 -144 -137 -254 l-86
-89 -170 4 c-191 6 -265 22 -351 81 -64 43 -104 117 -104 194 0 64 23 114 80
174 l40 42 127 -6 c71 -4 171 -14 223 -23z m-3419 -77 c70 -27 120 -76 235
-229 58 -76 124 -152 147 -169 146 -106 360 -159 644 -159 l133 0 44 -41 c32
-28 59 -71 94 -144 86 -176 146 -222 284 -213 73 5 128 26 173 65 11 10 58 64
103 121 l83 102 48 0 c27 0 84 -7 127 -16 94 -20 196 -15 270 13 59 23 148 82
259 172 241 195 296 202 525 65 52 -32 129 -72 170 -90 41 -18 76 -38 78 -44
6 -18 -132 -145 -221 -204 -226 -149 -385 -198 -652 -200 -154 -2 -163 -3
-235 -33 l-75 -30 -300 -7 c-932 -22 -1593 124 -2125 468 -249 160 -610 503
-610 578 0 19 8 19 378 16 331 -3 383 -6 423 -21z m-3916 -88 c83 -23 142
-132 133 -244 -4 -49 -10 -59 -148 -229 -79 -97 -148 -175 -154 -174 -31 9
-186 378 -186 443 0 65 80 139 208 191 64 27 90 29 147 13z m2847 -374 c75
-341 166 -683 233 -875 74 -211 199 -422 331 -558 66 -68 69 -65 85 60 12 92
7 310 -16 688 -8 129 -15 290 -15 358 0 121 0 122 23 122 13 0 111 -42 218
-94 376 -181 571 -255 880 -335 371 -96 712 -144 1238 -175 35 -2 67 -9 71
-16 17 -28 -37 -172 -151 -405 -183 -373 -379 -718 -460 -808 -28 -32 -100
-88 -171 -136 -216 -143 -190 -117 -272 -270 -31 -58 -111 -171 -198 -283
-141 -179 -168 -226 -168 -285 0 -21 3 -22 48 -17 64 9 199 61 329 129 87 45
118 56 163 58 45 2 55 -1 58 -15 6 -29 -42 -121 -148 -283 -107 -164 -157
-260 -167 -320 l-6 -38 39 7 c56 10 131 46 274 131 203 120 309 151 415 121
129 -38 238 -224 247 -421 4 -85 -10 -84 -152 14 -80 55 -128 81 -147 81 -37
0 -93 -35 -93 -58 0 -23 63 -69 151 -109 56 -26 69 -36 78 -66 25 -75 -31
-127 -136 -127 -62 0 -63 1 -90 39 -16 22 -40 62 -55 90 -34 62 -65 84 -120
83 -80 -1 -78 -46 7 -143 95 -109 86 -129 -50 -110 -195 27 -363 126 -511 300
-128 149 -203 296 -269 526 -62 219 -90 282 -154 345 -31 30 -72 64 -93 74
l-36 19 -179 -31 c-475 -85 -962 -134 -1173 -118 -165 12 -427 65 -831 166
-208 52 -326 64 -369 38 -14 -9 -25 -10 -34 -3 -121 83 -168 112 -233 145 -87
43 -208 80 -265 80 -33 0 -38 -3 -38 -24 0 -56 53 -159 151 -296 58 -81 89
-158 69 -170 -19 -12 -58 6 -215 95 -182 104 -297 139 -333 103 -23 -23 -11
-50 66 -141 156 -185 342 -463 342 -512 0 -15 -37 -44 -144 -113 -78 -50 -150
-92 -158 -92 -48 0 -40 69 23 196 22 44 42 97 46 117 5 33 3 37 -15 37 -32 0
-74 -42 -157 -155 -91 -125 -100 -128 -169 -55 -38 41 -46 56 -46 87 0 35 8
46 90 128 86 86 90 92 90 133 0 53 0 53 -111 -24 -81 -57 -164 -89 -196 -77
-13 5 -15 18 -9 82 13 157 81 325 184 453 61 76 369 315 564 437 38 24 77 56
88 72 l21 28 -35 103 c-19 57 -58 183 -86 281 -59 207 -91 299 -131 379 l-29
57 -42 -15 c-59 -22 -237 -29 -325 -15 -126 22 -252 100 -269 166 -8 32 54
108 171 207 153 131 250 161 385 118 74 -24 99 -25 144 -6 45 19 63 45 134
189 70 142 114 190 182 202 30 5 46 3 55 -6 16 -18 332 -983 375 -1146 17 -65
31 -74 114 -71 l71 3 0 75 c-1 41 -7 158 -14 260 -16 214 -10 489 13 625 9 50
27 191 41 314 15 123 30 247 36 274 5 27 9 51 9 53 0 2 16 8 36 13 44 12 95
-5 118 -41 17 -27 46 -182 46 -250 0 -34 21 -102 74 -245 40 -109 131 -357
202 -552 141 -393 156 -420 244 -463 71 -35 85 -35 103 5 22 46 9 462 -16 521
-15 34 -17 94 -17 553 0 361 3 521 11 536 23 44 63 78 88 75 23 -3 27 -11 43
-83z m2747 -3 c70 -22 95 -54 93 -119 -2 -115 -83 -218 -190 -242 -104 -23
-177 50 -214 212 -11 45 -10 48 18 78 16 17 52 44 79 60 59 34 128 38 214 11z
m-5316 -360 c8 -9 27 -42 41 -72 48 -104 31 -180 -82 -367 -40 -65 -80 -143
-91 -173 -12 -34 -26 -56 -37 -59 -27 -5 -154 133 -191 210 -32 67 -63 190
-63 255 0 53 38 83 172 133 62 24 133 54 158 67 55 28 72 29 93 6z m5414
-1445 c-3 -34 -22 -109 -43 -167 -36 -101 -37 -106 -31 -209 7 -134 10 -141
55 -141 33 0 48 11 157 119 130 130 169 153 181 106 10 -41 -13 -160 -47 -239
-45 -104 -59 -161 -59 -251 0 -111 13 -121 119 -89 46 13 71 33 209 168 179
174 192 182 322 180 144 -3 239 -52 294 -153 45 -84 15 -96 -169 -66 -116 19
-145 19 -145 0 0 -32 35 -67 119 -117 111 -66 181 -117 181 -131 0 -18 -72
-87 -91 -87 -9 0 -69 25 -134 56 -97 46 -124 55 -153 50 -80 -13 -67 -56 41
-139 42 -32 77 -63 77 -69 0 -7 -63 -9 -192 -5 -226 6 -266 14 -423 92 -173
86 -325 209 -538 438 -140 149 -140 151 -63 300 104 203 267 417 317 417 21 0
22 -3 16 -63z m-3488 -1073 c30 -5 81 -45 81 -63 0 -5 -28 -26 -62 -47 -131
-78 -218 -136 -218 -145 0 -5 19 -27 42 -50 44 -43 105 -77 173 -99 85 -26 76
-37 -71 -89 -135 -47 -180 -70 -219 -111 l-30 -32 38 -33 c57 -50 119 -64 322
-73 211 -10 260 -25 325 -99 47 -54 69 -114 77 -214 6 -84 -7 -143 -37 -159
-33 -18 -84 38 -109 118 -27 90 -54 122 -109 129 -50 7 -48 16 -26 -138 8 -61
14 -130 12 -152 l-3 -42 -51 -3 c-59 -3 -65 2 -83 73 -26 104 -94 217 -121
200 -6 -4 -10 -64 -10 -146 0 -126 -2 -139 -18 -139 -34 0 -148 76 -218 145
-115 114 -114 109 -114 558 l0 372 33 104 33 105 124 18 c69 9 132 19 140 22
15 4 43 1 99 -10z"/>
<path d="M8320 7167 c-138 -32 -316 -175 -359 -290 -26 -71 -24 -80 50 -219
108 -205 133 -222 329 -222 148 -1 231 15 302 58 96 57 135 158 118 307 -11
96 -41 174 -95 248 -75 102 -211 148 -345 118z m192 -116 c69 -27 132 -91 148
-153 17 -61 8 -174 -18 -224 -27 -53 -91 -108 -151 -130 -29 -10 -90 -18 -169
-21 l-122 -5 -46 46 -46 46 4 147 c3 127 7 155 26 198 26 57 45 80 87 107 26
17 44 19 130 15 70 -3 117 -11 157 -26z"/>
<path d="M8264 6876 c-43 -19 -64 -53 -64 -103 0 -71 20 -83 139 -83 77 0 103
4 115 16 30 30 12 118 -32 157 -27 24 -117 32 -158 13z"/>
<path d="M9300 7170 c-143 -30 -256 -145 -296 -300 -12 -48 -15 -93 -12 -176
4 -101 7 -118 36 -177 53 -106 137 -164 276 -188 145 -25 289 4 373 75 107 90
130 337 47 504 -44 90 -158 211 -226 242 -54 24 -137 32 -198 20z m213 -126
c23 -17 58 -53 78 -82 43 -61 89 -198 89 -263 0 -174 -120 -280 -320 -281
-108 -1 -175 20 -228 72 -85 81 -113 253 -60 356 37 70 70 107 142 158 117 83
218 97 299 40z"/>
<path d="M9322 6883 c-28 -11 -42 -62 -42 -152 0 -82 2 -91 22 -105 12 -9 36
-16 52 -16 68 0 166 74 166 125 0 24 -75 99 -135 136 -31 19 -41 21 -63 12z"/>
<path d="M8095 3700 c3 -5 15 -10 26 -10 10 0 19 5 19 10 0 6 -12 10 -26 10
-14 0 -23 -4 -19 -10z"/>
<path d="M9110 3610 c-14 -10 -22 -21 -19 -25 10 -9 56 12 62 29 9 22 -12 20
-43 -4z"/>
<path d="M8398 3559 c-47 -27 5 -54 53 -28 16 8 18 13 8 25 -13 16 -37 18 -61
3z"/>
<path d="M8765 3489 c-4 -6 -5 -13 -2 -16 7 -7 27 6 27 18 0 12 -17 12 -25 -2z"/>
<path d="M7880 3350 c0 -28 2 -30 20 -20 11 6 20 15 20 20 0 5 -9 14 -20 20
-18 10 -20 8 -20 -20z"/>
<path d="M8223 3333 c-18 -7 -16 -30 3 -37 27 -10 34 -7 34 19 0 24 -11 29
-37 18z"/>
<path d="M8770 3227 c0 -16 32 -47 48 -47 7 0 12 14 12 30 0 27 -3 30 -30 30
-18 0 -30 -5 -30 -13z"/>
<path d="M8450 3201 c0 -11 26 -22 34 -14 3 3 3 10 0 14 -7 12 -34 11 -34 0z"/>
<path d="M7620 3106 c0 -24 23 -41 41 -30 5 3 9 16 9 30 0 19 -5 24 -25 24
-20 0 -25 -5 -25 -24z"/>
<path d="M8084 3060 c-23 -9 -38 -36 -24 -45 13 -8 39 5 50 26 12 22 2 29 -26
19z"/>
<path d="M8305 2871 c-3 -5 -1 -12 5 -16 5 -3 10 1 10 9 0 18 -6 21 -15 7z"/>
<path d="M7797 2844 c-11 -12 -8 -23 13 -44 31 -31 52 -26 48 13 -2 26 -8 33
-28 35 -14 2 -29 0 -33 -4z"/>
<path d="M7480 2800 c0 -5 11 -10 25 -10 14 0 25 5 25 10 0 6 -11 10 -25 10
-14 0 -25 -4 -25 -10z"/>
<path d="M8285 2620 c-3 -5 -1 -10 4 -10 6 0 11 5 11 10 0 6 -2 10 -4 10 -3 0
-8 -4 -11 -10z"/>
<path d="M7112 2453 c3 -25 7 -28 33 -25 33 4 75 27 75 42 0 6 -25 10 -56 10
-54 0 -55 0 -52 -27z"/>
<path d="M7620 2385 c0 -14 5 -25 10 -25 6 0 10 11 10 25 0 14 -4 25 -10 25
-5 0 -10 -11 -10 -25z"/>
</g>
</svg>
